<?xml version="1.0" encoding="UTF-8" standalone="no"?>
<svg
   xmlns:dc="http://purl.org/dc/elements/1.1/"
   xmlns:cc="http://creativecommons.org/ns#"
   xmlns:rdf="http://www.w3.org/1999/02/22-rdf-syntax-ns#"
   xmlns:svg="http://www.w3.org/2000/svg"
   xmlns="http://www.w3.org/2000/svg"
   xmlns:sodipodi="http://sodipodi.sourceforge.net/DTD/sodipodi-0.dtd"
   xmlns:inkscape="http://www.inkscape.org/namespaces/inkscape"
   width="120"
   height="120"
   version="1.1"
   viewBox="0 0 31.75 31.75"
   id="svg14"
   sodipodi:docname="corner2.svg"
   inkscape:version="0.92.3 (2405546, 2018-03-11)">
  <metadata
     id="metadata20">
    <rdf:RDF>
      <cc:Work
         rdf:about="">
        <dc:format>image/svg+xml</dc:format>
        <dc:type
           rdf:resource="http://purl.org/dc/dcmitype/StillImage" />
        <dc:title></dc:title>
      </cc:Work>
    </rdf:RDF>
  </metadata>
  <defs
     id="defs18" />
  <sodipodi:namedview
     pagecolor="#ffffff"
     bordercolor="#666666"
     borderopacity="1"
     objecttolerance="10"
     gridtolerance="10"
     guidetolerance="10"
     inkscape:pageopacity="0"
     inkscape:pageshadow="2"
     inkscape:window-width="1680"
     inkscape:window-height="1027"
     id="namedview16"
     showgrid="false"
     inkscape:pagecheckerboard="true"
     inkscape:zoom="4"
     inkscape:cx="-12.982267"
     inkscape:cy="65.804712"
     inkscape:window-x="-8"
     inkscape:window-y="-8"
     inkscape:window-maximized="1"
     inkscape:current-layer="svg14"
     inkscape:snap-global="true"
     inkscape:snap-page="true"
     showguides="true"
     inkscape:guide-bbox="true">
    <sodipodi:guide
       position="1.5114112,44.65533"
       orientation="1,0"
       id="guide869"
       inkscape:locked="false" />
    <sodipodi:guide
       position="44.380528,30.640426"
       orientation="0,1"
       id="guide871"
       inkscape:locked="false" />
  </sodipodi:namedview>
  <path
     style="fill:#333333;fill-opacity:1;stroke:none;stroke-width:0.99999994px;stroke-linecap:butt;stroke-linejoin:miter;stroke-opacity:1"
     d="M 55.345703,0 55.344859,7.0117796e-6 0,0 V 52.444455 L 17.517578,53.201172 18.75,60 l 3,10.5 10.75,13.5 15.25,7 20.5,-1.5 12.5,-8.25 9.5,-12.75 3,-14.25 L 90.5,38 81.25,24.75 67.25,16.25 55.345703,14.78125 Z M 60.75,30.5 l 11,5.25 7,9.75 1,12 -4.75,12 -10.75,7.75 -9.75,1.5 -12.25,-3 L 35,69.25 30.5,57.75 31,48.25 37.5,37 48.25,30.75 Z"
     transform="scale(0.26458333)"
     id="path877"
     inkscape:connector-curvature="0"
     sodipodi:nodetypes="cccccccccccccccccccccccccccccccc" />
  <g
     transform="matrix(1.0098,0,0,0.99992,-53.562604,-212.5848)"
     id="g12"
     style="fill:#333333;fill-opacity:0;stroke:#e8e8e8;stroke-linejoin:bevel;stroke-width:1.00003945;stroke-miterlimit:4;stroke-dasharray:none;paint-order:stroke fill markers;stroke-opacity:1">
    <path
       d="m 84.09674,212.6015 -16.55274,3.1e-4 v 3.91112 c 5.4739,7e-5 9.9114,4.55156 9.9115,10.16602 -5.5e-5,5.61457 -4.4376,10.16592 -9.9115,10.16602 -5.4739,-6e-5 -9.9114,-4.55155 -9.9115,-10.16602 h -3.8132 v 17.40475"
       style="fill:#333333;fill-opacity:0;stroke:#e8e8e8;stroke-width:1.01279819;stroke-linecap:square;stroke-linejoin:miter;stroke-miterlimit:4;stroke-dasharray:none;stroke-opacity:1;paint-order:stroke fill markers"
       id="path4"
       inkscape:connector-curvature="0"
       sodipodi:nodetypes="cccccccc" />
    <circle
       cx="67.543999"
       cy="226.72308"
       r="6.4073"
       style="fill:#333333;fill-opacity:0;stroke:#e8e8e8;stroke-width:1.00003946;stroke-miterlimit:4;stroke-dasharray:none;stroke-opacity:1;paint-order:stroke fill markers"
       id="circle6" />
  </g>
</svg>
