<?xml version="1.0" encoding="UTF-8"?>
<!-- Created with Inkscape (http://www.inkscape.org/) -->
<svg width="110.52mm" height="84.104mm" version="1.1" viewBox="0 0 110.52 84.104" xmlns="http://www.w3.org/2000/svg" xmlns:cc="http://creativecommons.org/ns#" xmlns:dc="http://purl.org/dc/elements/1.1/" xmlns:rdf="http://www.w3.org/1999/02/22-rdf-syntax-ns#" xmlns:xlink="http://www.w3.org/1999/xlink">
 <metadata>
  <rdf:RDF>
   <cc:Work rdf:about="">
    <dc:format>image/svg+xml</dc:format>
    <dc:type rdf:resource="http://purl.org/dc/dcmitype/StillImage"/>
    <dc:title/>
   </cc:Work>
  </rdf:RDF>
 </metadata>
 <g transform="translate(-38.205 -108.46)" stroke="#8e8e8e">
  <g transform="matrix(.52427 0 0 .52427 40.593 79.726)">
   <rect transform="matrix(.98641 -.16428 .14646 .98922 3.5142 -4.6863)" x="-13.905" y="90.039" width="192.97" height="86.362" fill="#979797" stroke="#000" stroke-linejoin="bevel" stroke-width=".30207" style="paint-order:stroke markers fill"/>
   <g stroke="#8e8e8e">
    <g stroke-linejoin="bevel">
     <g transform="matrix(.94776 -.15784 .14805 1 -14.216 16.968)" fill="#e3e3e3" stroke-width=".26458">
      <rect x="11.282" y="84.199" width="11.339" height="5.2917" style="paint-order:stroke markers fill"/>
      <rect x="192.39" y="84.199" width="11.339" height="5.2917" style="paint-order:stroke markers fill"/>
      <rect x="178.46" y="84.199" width="11.339" height="5.2917" style="paint-order:stroke markers fill"/>
      <rect x="164.53" y="84.199" width="11.339" height="5.2917" style="paint-order:stroke markers fill"/>
      <rect x="150.6" y="84.199" width="11.339" height="5.2917" style="paint-order:stroke markers fill"/>
      <rect x="136.66" y="84.199" width="11.339" height="5.2917" style="paint-order:stroke markers fill"/>
      <rect x="122.73" y="84.199" width="11.339" height="5.2917" style="paint-order:stroke markers fill"/>
      <rect x="108.8" y="84.199" width="11.339" height="5.2917" style="paint-order:stroke markers fill"/>
      <rect x="94.87" y="84.199" width="11.339" height="5.2917" style="paint-order:stroke markers fill"/>
      <rect x="80.939" y="84.199" width="11.339" height="5.2917" style="paint-order:stroke markers fill"/>
      <rect x="67.008" y="84.199" width="11.339" height="5.2917" style="paint-order:stroke markers fill"/>
      <rect x="53.076" y="84.199" width="11.339" height="5.2917" style="paint-order:stroke markers fill"/>
      <rect x="39.145" y="84.199" width="11.339" height="5.2917" style="paint-order:stroke markers fill"/>
      <rect x="25.214" y="84.199" width="11.339" height="5.2917" style="paint-order:stroke markers fill"/>
     </g>
     <g transform="matrix(.9515 -.15846 .14806 1 -14.269 16.894)" fill="#e3e3e3">
      <rect x="38.098" y="92.137" width="9.8274" height="9.8274" stroke-width=".26458" style="paint-order:stroke markers fill"/>
      <rect x="185.63" y="92.179" width="17.302" height="9.7424" stroke-width=".34955" style="paint-order:stroke markers fill"/>
      <g stroke-width=".26458">
       <rect x="51.506" y="92.137" width="9.8274" height="9.8274" style="paint-order:stroke markers fill"/>
       <rect x="64.914" y="92.137" width="9.8274" height="9.8274" style="paint-order:stroke markers fill"/>
       <rect x="78.322" y="92.137" width="9.8274" height="9.8274" style="paint-order:stroke markers fill"/>
       <rect x="91.73" y="92.137" width="9.8274" height="9.8274" style="paint-order:stroke markers fill"/>
       <rect x="105.14" y="92.137" width="9.8274" height="9.8274" style="paint-order:stroke markers fill"/>
       <rect x="118.55" y="92.137" width="9.8274" height="9.8274" style="paint-order:stroke markers fill"/>
       <rect x="131.95" y="92.137" width="9.8274" height="9.8274" style="paint-order:stroke markers fill"/>
       <rect x="24.69" y="92.137" width="9.8274" height="9.8274" style="paint-order:stroke markers fill"/>
       <rect x="145.36" y="92.137" width="9.8274" height="9.8274" style="paint-order:stroke markers fill"/>
       <rect x="158.77" y="92.137" width="9.8274" height="9.8274" style="paint-order:stroke markers fill"/>
       <rect x="172.18" y="92.137" width="9.8274" height="9.8274" style="paint-order:stroke markers fill"/>
       <rect x="11.282" y="92.137" width="9.8274" height="9.8274" style="paint-order:stroke markers fill"/>
      </g>
     </g>
     <g transform="matrix(.95344 -.15879 .14807 1.0001 -14.362 16.139)">
      <g fill="#e3e3e3">
       <rect x="11.282" y="105.37" width="17.302" height="9.7424" stroke-width=".34955" style="paint-order:stroke markers fill"/>
       <rect x="58.933" y="105.28" width="9.8274" height="9.8274" stroke-width=".26458" style="paint-order:stroke markers fill"/>
       <rect x="85.689" y="105.28" width="9.8274" height="9.8274" stroke-width=".26458" style="paint-order:stroke markers fill"/>
      </g>
      <rect x="70.48" y="91.088" width="17.278" height="23.958" ry="7.2432" fill="#fff" stroke-width=".39002" style="paint-order:stroke markers fill"/>
      <g fill="#e3e3e3" stroke-width=".26458">
       <rect x="99.067" y="105.28" width="9.8274" height="9.8274" style="paint-order:stroke markers fill"/>
       <rect x="112.44" y="105.28" width="9.8274" height="9.8274" style="paint-order:stroke markers fill"/>
       <rect x="139.2" y="105.28" width="9.8274" height="9.8274" style="paint-order:stroke markers fill"/>
       <rect x="152.58" y="105.28" width="9.8274" height="9.8274" style="paint-order:stroke markers fill"/>
       <rect x="45.555" y="105.28" width="9.8274" height="9.8274" style="paint-order:stroke markers fill"/>
       <rect x="165.96" y="105.28" width="9.8274" height="9.8274" style="paint-order:stroke markers fill"/>
       <rect x="179.33" y="105.28" width="9.8274" height="9.8274" style="paint-order:stroke markers fill"/>
       <rect x="192.71" y="105.28" width="9.8274" height="9.8274" style="paint-order:stroke markers fill"/>
       <rect x="32.177" y="105.28" width="9.8274" height="9.8274" style="paint-order:stroke markers fill"/>
      </g>
      <rect x="123.97" y="90.05" width="18.159" height="25.179" ry="7.6122" fill="#fff" stroke-width=".40989" style="paint-order:stroke markers fill"/>
      <path d="m138.85 104.53a4.9247 10.205 0 0 1-4.5143 10.17 4.9247 10.205 0 0 1-5.2667-8.4744 4.9247 10.205 0 0 1 3.6364-11.582 4.9247 10.205 0 0 1 5.8729 6.5438l-4.653 3.3431z" stroke-width=".26488" style="paint-order:stroke markers fill"/>
      <path d="m84.679 104.91a4.9247 10.205 0 0 1-4.5143 10.17 4.9247 10.205 0 0 1-5.2667-8.4744 4.9247 10.205 0 0 1 3.6364-11.582 4.9247 10.205 0 0 1 5.8729 6.5438l-4.653 3.3431z" stroke-width=".26488" style="paint-order:stroke markers fill"/>
     </g>
     <g transform="matrix(.9515 -.15846 .14807 1.0001 -14.346 16.095)" fill="#e3e3e3">
      <rect x="11.297" y="117.85" width="20.297" height="9.7139" stroke-width=".37804" style="paint-order:stroke markers fill"/>
      <rect x="185.59" y="117.84" width="17.302" height="9.7424" stroke-width=".34955" style="paint-order:stroke markers fill"/>
      <g stroke-width=".26458">
       <rect x="62.753" y="117.75" width="9.8274" height="9.8274" style="paint-order:stroke markers fill"/>
       <rect x="76.397" y="117.75" width="9.8274" height="9.8274" style="paint-order:stroke markers fill"/>
       <rect x="90.04" y="117.75" width="9.8274" height="9.8274" style="paint-order:stroke markers fill"/>
       <rect x="103.68" y="117.75" width="9.8274" height="9.8274" style="paint-order:stroke markers fill"/>
       <rect x="117.33" y="117.75" width="9.8274" height="9.8274" style="paint-order:stroke markers fill"/>
       <rect x="130.97" y="117.75" width="9.8274" height="9.8274" style="paint-order:stroke markers fill"/>
       <rect x="144.61" y="117.75" width="9.8274" height="9.8274" style="paint-order:stroke markers fill"/>
       <rect x="158.26" y="117.75" width="9.8274" height="9.8274" style="paint-order:stroke markers fill"/>
       <rect x="49.11" y="117.75" width="9.8274" height="9.8274" style="paint-order:stroke markers fill"/>
       <rect x="171.9" y="117.75" width="9.8274" height="9.8274" style="paint-order:stroke markers fill"/>
       <rect x="35.467" y="117.75" width="9.8274" height="9.8274" style="paint-order:stroke markers fill"/>
      </g>
     </g>
     <g transform="matrix(.9515 -.15846 .14807 1.0001 -13.873 16.797)" fill="#e3e3e3">
      <rect x="175.42" y="129.6" width="27.044" height="9.6569" stroke-width=".43509" style="paint-order:stroke markers fill"/>
      <rect x="10.947" y="129.6" width="27.044" height="9.6569" stroke-width=".43509" style="paint-order:stroke markers fill"/>
      <g stroke-width=".26458">
       <rect x="68.364" y="129.43" width="9.8274" height="9.8274" style="paint-order:stroke markers fill"/>
       <rect x="81.736" y="129.43" width="9.8274" height="9.8274" style="paint-order:stroke markers fill"/>
       <rect x="95.108" y="129.43" width="9.8274" height="9.8274" style="paint-order:stroke markers fill"/>
       <rect x="108.48" y="129.43" width="9.8274" height="9.8274" style="paint-order:stroke markers fill"/>
       <rect x="121.85" y="129.43" width="9.8274" height="9.8274" style="paint-order:stroke markers fill"/>
       <rect x="135.22" y="129.43" width="9.8274" height="9.8274" style="paint-order:stroke markers fill"/>
       <rect x="148.59" y="129.43" width="9.8274" height="9.8274" style="paint-order:stroke markers fill"/>
       <rect x="161.97" y="129.43" width="9.8274" height="9.8274" style="paint-order:stroke markers fill"/>
       <rect x="54.992" y="129.43" width="9.8274" height="9.8274" style="paint-order:stroke markers fill"/>
       <rect x="41.621" y="129.43" width="9.8274" height="9.8274" style="paint-order:stroke markers fill"/>
      </g>
     </g>
    </g>
    <g transform="matrix(.99906 0 0 1 .19018 -.0014305)">
     <g fill="#e3e3e3" stroke="#8e8e8e" stroke-linejoin="bevel">
      <g stroke-width=".26184">
       <rect transform="matrix(.98644 -.16413 .14659 .9892 0 0)" x="-5.9027" y="158.59" width="9.52" height="9.9351" style="paint-order:stroke markers fill"/>
       <rect transform="matrix(.98644 -.16413 .14659 .9892 0 0)" x="6.2528" y="158.59" width="9.52" height="9.9351" style="paint-order:stroke markers fill"/>
       <rect transform="matrix(.98644 -.16413 .14659 .9892 0 0)" x="18.408" y="158.59" width="9.52" height="9.9351" style="paint-order:stroke markers fill"/>
      </g>
      <rect transform="matrix(.98644 -.16413 .14659 .9892 0 0)" x="30.584" y="158.61" width="12.775" height="9.8934" stroke-width=".30268" style="paint-order:stroke markers fill"/>
      <rect transform="matrix(.98644 -.16413 .14659 .9892 0 0)" x="117.75" y="158.61" width="12.775" height="9.8934" stroke-width=".30268" style="paint-order:stroke markers fill"/>
      <rect transform="matrix(.98644 -.16413 .14659 .9892 0 0)" x="133.19" y="158.57" width="9.52" height="9.9351" stroke-width=".26184" style="paint-order:stroke markers fill"/>
      <rect transform="matrix(.98644 -.16413 .14659 .9892 0 0)" x="145.31" y="163.12" width="9.5863" height="5.4189" stroke-width=".19405" style="paint-order:stroke markers fill"/>
      <rect transform="matrix(.98644 -.16413 .14659 .9892 0 0)" x="169.62" y="163.12" width="9.5863" height="5.4189" stroke-width=".19405" style="paint-order:stroke markers fill"/>
     </g>
     <g transform="matrix(.95558 -.15899 .1482 1 16.157 11.877)" fill="#e3e3e3" stroke="#8e8e8e" stroke-linejoin="bevel" stroke-width=".19608">
      <rect x="147.85" y="147.14" width="9.8959" height="5.3602" style="paint-order:stroke markers fill"/>
      <rect x="147.85" y="141.78" width="9.8959" height="5.3602" style="paint-order:stroke markers fill"/>
     </g>
     <path d="m14.526 172.09c-7.5748 13.107-0.22736 1.9186-5.1457 10.234l190.53-32.457 6.0777-9.4697z" fill="#ccc" stroke="#000" stroke-width=".26471px"/>
     <g transform="matrix(1.049 -.1078 .22268 .99358 -34.96 14.886)">
      <path d="m131.11 142.15c2.1388 23.75-74.201 25.114-62.505-4.9703 18.572 6.0088 44.448-10.337 62.505 4.9703z" stroke="#8e8e8e" stroke-linejoin="bevel" stroke-width=".67264" style="paint-order:stroke markers fill"/>
      <g stroke="#000">
       <path d="m71.124 148.86s6.1398-4.7513 11.815-0.97161c5.675 3.7797 5.9869-3.613 12.797 0.16675 20.64 5.4052 14.68 8.8823 11.73 9.4693-11.994 3.1994-33.799-1.1052-36.342-8.6645z" fill="#fff" stroke-width=".26471px"/>
       <path d="m64.235 165.88c-6.4303 28.594-9.5455 41.571-9.5455 41.571l11.281 1.2239s-2.8938-3.3573-5.635-4.0351c-2.7413-0.67783-2.1359-12.025-0.21542-12.577 1.9205-0.55247 3.8831-3.0024 2.7887-4.6428s3.873-21.644 3.873-21.644z" stroke-width=".25634px"/>
       <path d="m120.27 161.93c-6.4303 28.594-9.5455 41.571-9.5455 41.571l11.281 1.2239s-2.8938-3.3573-5.635-4.0351c-2.7412-0.67783-2.1359-12.025-0.21542-12.577 1.9205-0.55247 3.8831-3.0024 2.7887-4.6428s3.873-21.644 3.873-21.644z" stroke-width=".25634px"/>
      </g>
     </g>
     <g stroke="#000">
      <path d="m52.521 89.686s16.521-15.084 26.814-11.979l10.293 3.1051" fill="none" stroke-width="2.8171"/>
      <path d="m117.38 79.006s9.3675-9.2413 20.052-3.6943l10.685 5.547" fill="none" stroke-width="2.4062"/>
      <path d="m2.7978 86.667c-7.5748 13.107-7.4157 13.258-7.4157 13.258l13.998 82.398 6.0777-10.226z" fill="#ccc" stroke-width=".26471px"/>
     </g>
    </g>
   </g>
  </g>
 </g>
</svg>
